<svg xmlns="http://www.w3.org/2000/svg" width="93.876" height="106" viewBox="0 0 93.876 106">
  <defs>
    <style>
      .cls-1 {
        fill: #101012;
        fill-rule: evenodd;
      }
    </style>
  </defs>
  <path id="_1" data-name="#1" class="cls-1" d="M485.074,3069.16a0.808,0.808,0,0,0,.26.67,0.744,0.744,0,0,0,.718.19,7.036,7.036,0,0,0,1.58-.82,4.7,4.7,0,0,1,2.131-.8,2.41,2.41,0,0,1,1.875.8,2.5,2.5,0,0,1,.805,2.08,3.722,3.722,0,0,1-1.156,2.31,5.7,5.7,0,0,1-3.94,1.72l-0.229-1.94a4.409,4.409,0,0,0,2.878-1.08,1.486,1.486,0,0,0,.447-0.82,0.833,0.833,0,0,0-.969-0.91,4.578,4.578,0,0,0-1.31.64,6.048,6.048,0,0,1-2.372,1.01,2.393,2.393,0,0,1-1.918-.81,2.426,2.426,0,0,1-.805-2.11,3.825,3.825,0,0,1,1.134-2.2,5.677,5.677,0,0,1,1.524-1.12,5.127,5.127,0,0,1,1.778-.53l0.358,1.8a4.175,4.175,0,0,0-2.4,1.16A1.28,1.28,0,0,0,485.074,3069.16Zm8.625-7.53,4.4,6.07-1.68,1.22-4.4-6.07-2.132,1.54-1.053-1.45,5.943-4.31,1.054,1.46Zm9.728-7.52,0.821,1.65-4.145,2.06,0.851,1.72,3.728-1.85,0.785,1.58-3.728,1.85,0.857,1.73,4.276-2.12,0.815,1.64-6.134,3.04-4.129-8.32Zm9.689-2.35a3.158,3.158,0,0,1,1.674,2.16,3.021,3.021,0,0,1-.231,2.7,4.917,4.917,0,0,1-2.7,1.65l-1.184.36,0.75,2.48-1.985.6-2.689-8.9,3.143-.95A4.731,4.731,0,0,1,513.116,3051.76Zm-0.4,3.94a1.8,1.8,0,0,0,0-1.28,1.31,1.31,0,0,0-.8-0.96,2.754,2.754,0,0,0-1.543.11l-1.132.35,0.9,2.99,1.336-.41A1.843,1.843,0,0,0,512.717,3055.7Zm9.982-6.37,2.059-.25,1.126,9.22-2.059.25-0.443-3.63-3.669.45,0.443,3.63-2.059.25-1.125-9.22,2.058-.25,0.471,3.85,3.668-.45Zm12.582-.06-0.077,1.84-4.624-.19-0.08,1.91,4.158,0.18-0.074,1.77-4.158-.18-0.081,1.93,4.768,0.2-0.077,1.83-6.841-.29,0.391-9.28Zm9.936,1.77,2.026,0.45-1.981,9.08-2.026-.45-3.086-6.63-1.24,5.69-2.027-.44,1.981-9.08,1.9,0.41,3.18,6.82Zm7.076,4.27a0.818,0.818,0,0,0-.526.49,0.748,0.748,0,0,0,.09.74,6.794,6.794,0,0,0,1.343,1.17,4.677,4.677,0,0,1,1.524,1.69,2.4,2.4,0,0,1-.054,2.03,2.516,2.516,0,0,1-1.644,1.52,3.8,3.8,0,0,1-2.575-.23,5.736,5.736,0,0,1-3.045-3.04l1.723-.92a4.43,4.43,0,0,0,2.062,2.28,1.492,1.492,0,0,0,.923.12,0.813,0.813,0,0,0,.556-0.49,0.784,0.784,0,0,0-.064-0.75,4.545,4.545,0,0,0-1.075-.99,5.944,5.944,0,0,1-1.806-1.83,2.371,2.371,0,0,1,.049-2.08,2.4,2.4,0,0,1,1.661-1.52,3.838,3.838,0,0,1,2.467.24,5.865,5.865,0,0,1,1.6,1.01,5.034,5.034,0,0,1,1.151,1.46l-1.551.99a4.1,4.1,0,0,0-1.957-1.8A1.3,1.3,0,0,0,552.293,3055.31Zm10.194,12.62a5.059,5.059,0,0,1-5.793-3.82,4.864,4.864,0,0,1,3.772-5.72,5.058,5.058,0,0,1,5.792,3.82A4.862,4.862,0,0,1,562.487,3067.93Zm1.293-3.24a3.039,3.039,0,0,0,.5-2.21,2.635,2.635,0,0,0-3.274-2.16,3.063,3.063,0,0,0-1.833,1.33,3.017,3.017,0,0,0-.5,2.2,2.566,2.566,0,0,0,1.157,1.81,2.516,2.516,0,0,0,2.117.35A3,3,0,0,0,563.78,3064.69Zm11.747,4.64,1.423,1.5-6.761,6.38-1.423-1.51,1.2-7.21-4.237,3.99-1.423-1.51,6.762-6.37,1.331,1.41-1.224,7.42Zm-87.5,66.49,4.677-3.07,1.671,1.39-2.148,5.16,4.831-2.94,1.731,1.43-8.424,5.09-1.188-.98,2.552-6.28-5.676,3.69-1.189-.98,3.426-9.23,1.731,1.43Zm18.309,5.5-0.832,1.65-4.132-2.08-0.862,1.71,3.717,1.87-0.8,1.58-3.717-1.87-0.868,1.72,4.262,2.15-0.826,1.64-6.114-3.08,4.184-8.3Zm3.325,10.95-3.888-1.2,2.735-8.88,3.456,1.06a5.311,5.311,0,0,1,1.49.7,2.289,2.289,0,0,1,.8.88,2.412,2.412,0,0,1,.12,1.74,1.907,1.907,0,0,1-1.15,1.34c-0.19.07-.319,0.11-0.387,0.13s-0.189.02-.363,0.04a2.436,2.436,0,0,1,1.086,1.15,2.182,2.182,0,0,1,.058,1.56,2.508,2.508,0,0,1-1.141,1.44A3.49,3.49,0,0,1,509.663,3152.27Zm-1.39-2.27,1.36,0.42a3.088,3.088,0,0,0,1.342.18,0.86,0.86,0,0,0,.68-0.69,0.826,0.826,0,0,0-.2-0.95,3.873,3.873,0,0,0-1.381-.64l-1.17-.36Zm1.112-3.61,0.94,0.29a3.259,3.259,0,0,0,1.281.2,0.787,0.787,0,0,0,.637-0.64,0.836,0.836,0,0,0-.128-0.9,3.1,3.1,0,0,0-1.186-.57l-0.953-.3Zm18.89,0.65a4.369,4.369,0,0,1,1.117,3.46,4.6,4.6,0,0,1-1.508,3.35,5.5,5.5,0,0,1-4.027,1.01l-3.171-.2,0.579-9.27,3.277,0.2A5.465,5.465,0,0,1,528.275,3147.04Zm-1.863,5.42a2.707,2.707,0,0,0,.893-2.03,2.78,2.78,0,0,0-.632-2.15,3.256,3.256,0,0,0-2.3-.89l-1.154-.07-0.352,5.64,1.314,0.08A3.053,3.053,0,0,0,526.412,3152.46Zm12.069-7.37,0.187,1.84-4.6.47,0.194,1.9,4.14-.42,0.179,1.76-4.139.42,0.2,1.92,4.748-.49,0.187,1.83-6.812.69-0.943-9.24Zm4.837,0.81a0.793,0.793,0,0,0-.125.7,0.746,0.746,0,0,0,.517.54,6.932,6.932,0,0,0,1.776.12,4.756,4.756,0,0,1,2.235.42,2.421,2.421,0,0,1,1.187,1.66,2.52,2.52,0,0,1-.395,2.2,3.7,3.7,0,0,1-2.19,1.37,5.7,5.7,0,0,1-4.259-.58l0.813-1.78a4.415,4.415,0,0,0,3.021.58,1.45,1.45,0,0,0,.807-0.47,0.827,0.827,0,0,0-.355-1.28,4.791,4.791,0,0,0-1.451-.14,5.908,5.908,0,0,1-2.55-.37,2.355,2.355,0,0,1-1.217-1.69,2.4,2.4,0,0,1,.4-2.21,3.857,3.857,0,0,1,2.116-1.3,5.864,5.864,0,0,1,1.881-.16,5.03,5.03,0,0,1,1.8.47l-0.635,1.73a4.127,4.127,0,0,0-2.65-.26A1.264,1.264,0,0,0,543.318,3145.9Zm5.792-3.71,1.931-.76,3.395,8.65-1.93.76Zm11.836-.66,1.82-1.02,1.615,2.87a4.882,4.882,0,0,1-2.583,3.22,4.7,4.7,0,0,1-3.661.5,4.567,4.567,0,0,1-2.888-2.3,4.641,4.641,0,0,1-.455-3.71,4.7,4.7,0,0,1,2.3-2.87,5.039,5.039,0,0,1,3.676-.56l-0.177,1.88a4.224,4.224,0,0,0-1.371-.09,3.052,3.052,0,0,0-1.092.38,2.742,2.742,0,0,0-1.345,1.68,2.84,2.84,0,0,0,.331,2.24,2.88,2.88,0,0,0,1.711,1.46,2.5,2.5,0,0,0,2-.22,3.507,3.507,0,0,0,1.363-1.24Zm6.339-10.63,1.553-1.38,6.163,6.96-1.553,1.37-7.175-1.42,3.862,4.36-1.552,1.37-6.164-6.95,1.453-1.29,7.381,1.45Zm-76.26-32.25a0.756,0.756,0,0,0,.618.29,0.747,0.747,0,0,0,.614-0.29,1.221,1.221,0,0,0,.227-0.78v-2.27H493.4v2.3a1.834,1.834,0,0,1-.494,1.38,1.732,1.732,0,0,1-1.264.47,1.75,1.75,0,0,1-1.268-.48,1.819,1.819,0,0,1-.5-1.37v-2.3H490.8v2.27A1.21,1.21,0,0,0,491.025,3098.65Zm6.206-3.05h0.917v4.11h-0.917l-1.959-2.57v2.57h-0.917v-4.11h0.858l2.018,2.65v-2.65Zm3.67,0.8v3.31h-0.917v-3.31h-1.165v-0.8h3.247v0.8H500.9Zm54.564,2.25a0.756,0.756,0,0,0,.617.29,0.747,0.747,0,0,0,.615-0.29,1.215,1.215,0,0,0,.227-0.78v-2.27h0.918v2.3a1.838,1.838,0,0,1-.494,1.38,1.926,1.926,0,0,1-2.533-.01,1.823,1.823,0,0,1-.5-1.37v-2.3h0.917v2.27A1.21,1.21,0,0,0,555.465,3098.65Zm6.2-3.05h0.919v4.11H561.67l-1.958-2.57v2.57h-0.918v-4.11h0.859l2.017,2.65v-2.65Zm3.671,0.8v3.31h-0.917v-3.31h-1.165v-0.8h3.247v0.8h-1.165Zm-14.692,9.91a7.242,7.242,0,0,0-1.408-1.88c-0.367-.29-0.766-0.67-1.535.65a7.971,7.971,0,0,1-1.864,2.23c-2.988,2.48-6.877,2.21-6,3.97a10.1,10.1,0,0,0,3.827,3.34,17.122,17.122,0,0,1-12.477,7.38v-17.82h3.432v-3.59h-3.432v-3.63h9.969l-2.267-4.19h-7.7v-4.16a6.875,6.875,0,1,0-4.468,0v4.16h-7.7l-2.272,4.19h9.97v3.63h-3.433v3.59h3.433v17.81a17.059,17.059,0,0,1-12.459-7.39,10.088,10.088,0,0,0,3.81-3.32c0.868-1.75-2.993-1.49-5.978-3.95a7.948,7.948,0,0,1-1.891-2.25c-0.769-1.32-1.167-.94-1.535-0.65a6.851,6.851,0,0,0-1.379,1.83c-1.9,3.28-3.84,9.44-1.716,10.53,0.938,0.48,2.542.3,4.3-.24a22.834,22.834,0,0,0,38.192.01c1.747,0.53,3.342.7,4.275,0.23C554.447,3115.7,552.535,3109.6,550.649,3106.31Zm-23.965-24.2a2.271,2.271,0,1,1,2.269,2.27A2.273,2.273,0,0,1,526.684,3082.11Zm-24.267,21.38H489.254v-2.04h13.163v2.04Zm64.44,0H553.694v-2.04h13.163v2.04Z" transform="translate(-483.062 -3049)"/>
</svg>
