<svg xmlns="http://www.w3.org/2000/svg" width="132.25" height="104.56" viewBox="0 0 132.25 104.56">
  <defs>
    <style>
      .cls-1 {
        fill: #101012;
        fill-rule: evenodd;
      }
    </style>
  </defs>
  <path id="_2" data-name="#2" class="cls-1" d="M805.335,3125.7a2.835,2.835,0,0,1,.859,2.19,2.934,2.934,0,0,1-.838,2.21,3.508,3.508,0,0,1-2.555.82h-2.053v-6h2.122A3.543,3.543,0,0,1,805.335,3125.7Zm-0.983,3.57a1.767,1.767,0,0,0,.494-1.35,1.805,1.805,0,0,0-.494-1.36,2.1,2.1,0,0,0-1.516-.48h-0.748v3.66h0.85A1.989,1.989,0,0,0,804.352,3129.27Zm7.331-4.35v1.19h-2.99v1.24h2.689v1.14h-2.689v1.25h3.084v1.18h-4.424v-6h4.33Zm2.692,1.2a0.5,0.5,0,0,0-.193.42,0.466,0.466,0,0,0,.236.41,3.991,3.991,0,0,0,1.091.37,3.077,3.077,0,0,1,1.327.63,1.563,1.563,0,0,1,.472,1.23,1.641,1.641,0,0,1-.605,1.31,2.442,2.442,0,0,1-1.594.5,3.668,3.668,0,0,1-2.568-1.06l0.8-.98a2.824,2.824,0,0,0,1.795.85,0.984,0.984,0,0,0,.58-0.15,0.517,0.517,0,0,0,.21-0.43,0.483,0.483,0,0,0-.223-0.43,2.8,2.8,0,0,0-.885-0.33,3.857,3.857,0,0,1-1.533-.64,1.8,1.8,0,0,1,.129-2.58,2.463,2.463,0,0,1,1.533-.46,3.619,3.619,0,0,1,1.2.21,3.1,3.1,0,0,1,1.048.58l-0.677.98a2.614,2.614,0,0,0-1.616-.59A0.786,0.786,0,0,0,814.375,3126.12Zm4.075-1.2h1.341v6H818.45v-6Zm6.717,2.94h1.349v2.13a3.136,3.136,0,0,1-2.474,1,3.032,3.032,0,0,1-2.22-.88,2.953,2.953,0,0,1-.9-2.21,3,3,0,0,1,.915-2.23,3.065,3.065,0,0,1,2.207-.89,3.253,3.253,0,0,1,2.247.85l-0.7,1a2.775,2.775,0,0,0-.743-0.48,1.965,1.965,0,0,0-.734-0.13,1.747,1.747,0,0,0-1.289.52,1.826,1.826,0,0,0-.523,1.37,1.867,1.867,0,0,0,.5,1.36,1.627,1.627,0,0,0,1.2.51,2.272,2.272,0,0,0,1.159-.27v-1.65Zm6.743-2.94h1.34v6h-1.34l-2.86-3.76v3.76h-1.34v-6h1.254l2.946,3.86v-3.86Zm-46.867-27.43v-1.63h4.432v5.55a3.014,3.014,0,0,1-.786,2.28,2.8,2.8,0,0,1-2.015.75,3.6,3.6,0,0,1-2.678-1.18l0.986-1.36a2.215,2.215,0,0,0,1.607.83,0.927,0.927,0,0,0,.688-0.31,1.34,1.34,0,0,0,.286-0.93v-4h-2.52Zm13.611,5.71a4.637,4.637,0,0,1-6.355,0,4.454,4.454,0,0,1,0-6.27,4.637,4.637,0,0,1,6.355,0A4.454,4.454,0,0,1,798.654,3103.2Zm-0.645-3.13a2.769,2.769,0,0,0-.731-1.94,2.4,2.4,0,0,0-3.592,0,2.933,2.933,0,0,0,0,3.87,2.416,2.416,0,0,0,3.592,0A2.744,2.744,0,0,0,798.009,3100.07Zm8.826-4.21h1.9v8.51h-1.9v-3.35H803.45v3.35h-1.9v-8.51h1.9v3.56h3.385v-3.56Zm9.946,0h1.9v8.51h-1.9l-4.054-5.33v5.33h-1.9v-8.51h1.777l4.176,5.48v-5.48Zm13.708,1.12a3.97,3.97,0,0,1,1.218,3.09,4.17,4.17,0,0,1-1.187,3.14,4.974,4.974,0,0,1-3.623,1.16h-2.909v-8.51H827A4.964,4.964,0,0,1,830.489,3096.98Zm-1.394,5.05a2.474,2.474,0,0,0,.7-1.91,2.566,2.566,0,0,0-.7-1.93,3,3,0,0,0-2.149-.67h-1.058v5.17h1.2A2.809,2.809,0,0,0,829.1,3102.03Zm11.414,1.17a4.638,4.638,0,0,1-6.356,0,4.452,4.452,0,0,1,0-6.27,4.638,4.638,0,0,1,6.356,0A4.454,4.454,0,0,1,840.509,3103.2Zm-0.646-3.13a2.768,2.768,0,0,0-.73-1.94,2.4,2.4,0,0,0-3.592,0,2.93,2.93,0,0,0,0,3.87,2.416,2.416,0,0,0,3.592,0A2.744,2.744,0,0,0,839.863,3100.07Zm9.678-4.21v1.69h-4.236v1.76h3.81v1.62h-3.81v1.76h4.371v1.68h-6.27v-8.51h6.135Zm33.576,27.38-6.992-12.35,6.955-12.85H870.705v-12.22h-8.066v-9.16a6.132,6.132,0,0,0-2.836-4.91l-40.421-23.33a6.091,6.091,0,0,0-5.67,0l-40.421,23.33a6.128,6.128,0,0,0-2.834,4.91h0v1.57H750.883l6.991,12.34-6.955,12.85h11.47v11.47h8.067v8.45a6.131,6.131,0,0,0,2.835,4.91l40.421,23.33a6.091,6.091,0,0,0,5.67,0l40.421-23.33a6.125,6.125,0,0,0,2.834-4.91v-0.1h20.48Zm-3.351-23.23-5.9,10.9,5.86,10.35H862.637v-6.37h8.068v-14.88h9.061ZM774.354,3073.6l40.421-23.34a4.032,4.032,0,0,1,3.543,0l40.421,23.34a4.1,4.1,0,0,1,1.772,3.06v9.16H772.584v-9.16h0A4.1,4.1,0,0,1,774.354,3073.6Zm-20.123,27.85,5.9-10.9-5.861-10.35h16.186v5.62h-8.067v15.63h-8.158Zm10.285,11.31v-24.81H868.577v24.81H764.516Zm95.994,10.58a4.127,4.127,0,0,1-1.771,3.07l-40.421,23.33a4.028,4.028,0,0,1-3.541,0l-40.423-23.33a4.134,4.134,0,0,1-1.771-3.07v-8.45H860.51v8.45Zm-36.348-51.92a2.279,2.279,0,0,0-.465-0.62c-0.121-.1-0.253-0.22-0.507.21a2.546,2.546,0,0,1-.615.73c-0.987.82-2.27,0.74-1.982,1.32a3.335,3.335,0,0,0,1.263,1.1,5.632,5.632,0,0,1-4.118,2.43v-5.88h1.133v-1.18h-1.133v-1.2h3.291l-0.749-1.38h-2.542v-1.38a2.27,2.27,0,1,0-1.475,0v1.38h-2.541l-0.75,1.38h3.291v1.2H815.13v1.18h1.133v5.88a5.6,5.6,0,0,1-4.113-2.44,3.327,3.327,0,0,0,1.258-1.09c0.286-.58-0.988-0.5-1.973-1.31a2.585,2.585,0,0,1-.624-0.74c-0.254-.43-0.386-0.31-0.507-0.21a2.11,2.11,0,0,0-.455.6c-0.626,1.08-1.268,3.11-.567,3.47a2.141,2.141,0,0,0,1.419-.07,7.542,7.542,0,0,0,12.606,0,2.12,2.12,0,0,0,1.412.07C825.416,3074.52,824.784,3072.5,824.162,3071.42Zm-7.911-7.99a0.75,0.75,0,1,1,.749.75A0.746,0.746,0,0,1,816.251,3063.43Z" transform="translate(-750.875 -3047.72)"/>
</svg>
