<svg xmlns="http://www.w3.org/2000/svg" width="132.76" height="82.12" viewBox="0 0 132.76 82.12">
  <defs>
    <style>
      .cls-1 {
        fill: #101012;
        fill-rule: evenodd;
      }
    </style>
  </defs>
  <path id="_3" data-name="#3" class="cls-1" d="M1092.95,3055.91a1.311,1.311,0,0,0-.53-0.12,0.7,0.7,0,0,0-.52.33,1.951,1.951,0,0,0-.34.94l-0.86,6a16.124,16.124,0,0,0,2.76-1.4l0.66,1.13a5.829,5.829,0,0,1-1.24.7c-0.48.21-.94,0.4-1.39,0.58s-0.78.31-.99,0.4l-0.57,4.01a3.611,3.611,0,0,1-1.18,2.43,3.213,3.213,0,0,1-2.09.78,2.218,2.218,0,0,1-1.81-.83,2.91,2.91,0,0,1-.67-1.86c0-1.8,1.32-3.39,3.95-4.79l0.17-1.39c0.22-1.96.44-3.67,0.67-5.13a5.311,5.311,0,0,1-2.05.4,2.5,2.5,0,0,1-1.73-.59,1.913,1.913,0,0,1-.66-1.52,1.817,1.817,0,0,1,.67-1.49,2.651,2.651,0,0,1,1.71-.54,6.6,6.6,0,0,1,1.83.4,6.426,6.426,0,0,0,1.84.39,3.153,3.153,0,0,0,1.96-.6,2.443,2.443,0,0,1,.43,1.43C1092.97,3055.68,1092.96,3055.8,1092.95,3055.91Zm-5.01,9.79c-1.64.99-2.45,2.03-2.45,3.13a1.3,1.3,0,0,0,.24.79,0.813,0.813,0,0,0,.69.37,1.116,1.116,0,0,0,.73-0.25,1.225,1.225,0,0,0,.38-0.83Zm-1.72-9.26a0.556,0.556,0,0,0,.29.45,1.6,1.6,0,0,0,.85.19,3.414,3.414,0,0,0,1.51-.52c-0.45-.1-0.91-0.22-1.38-0.35a5.694,5.694,0,0,0-.84-0.2A0.386,0.386,0,0,0,1086.22,3056.44Zm10.18,2.3a3.662,3.662,0,0,1,2.63,1.01,3.311,3.311,0,0,1,1.05,2.47,4.887,4.887,0,0,1-1.29,3.55,4.224,4.224,0,0,1-3.13,1.32,3.991,3.991,0,0,1-2.91-1.04,3.493,3.493,0,0,1-1.07-2.59,4.527,4.527,0,0,1,1.32-3.43A4.687,4.687,0,0,1,1096.4,3058.74Zm-0.34,1.39a1.58,1.58,0,0,0-1.36.93,4.742,4.742,0,0,0-.6,2.33,3.1,3.1,0,0,0,.4,1.65,1.358,1.358,0,0,0,1.23.65,1.6,1.6,0,0,0,1.38-.91,3.926,3.926,0,0,0,.56-2.08,3.761,3.761,0,0,0-.4-1.85A1.293,1.293,0,0,0,1096.06,3060.13Zm9.45,4.91,0.41-3.8a1.24,1.24,0,0,0-.24-0.77,0.937,0.937,0,0,0-.77-0.31,1.171,1.171,0,0,0-.91.42,2.81,2.81,0,0,0-.54,1.11c-0.08.65-.2,1.6-0.36,2.86s-0.26,2.06-.31,2.44h-2.28c0.83-7.01,1.32-11.32,1.5-12.92a2.837,2.837,0,0,1,.97-0.13c0.9,0,1.34.26,1.34,0.79v0.1c-0.19,1.79-.4,3.37-0.62,4.73a3,3,0,0,1,2.06-.82,2.652,2.652,0,0,1,1.82.58,1.879,1.879,0,0,1,.67,1.48,6.429,6.429,0,0,1-.1.89c-0.27,1.72-.4,2.72-0.4,3.02q0,0.81.54,0.81a1.373,1.373,0,0,0,.95-0.6,4.488,4.488,0,0,0,.81-1.82,3.058,3.058,0,0,1,.7.98q-0.885,2.985-3.15,2.98a1.9,1.9,0,0,1-1.58-.65A2.2,2.2,0,0,1,1105.51,3065.04Zm8.73,0.03,0.41-3.83a1.24,1.24,0,0,0-.24-0.77,0.975,0.975,0,0,0-.8-0.31,1.167,1.167,0,0,0-.94.49,2.518,2.518,0,0,0-.49,1.23c-0.41,3.13-.63,4.84-0.65,5.11h-2.32l0.94-8.08a5.122,5.122,0,0,1,1.1-.19,0.964,0.964,0,0,1,1.2.84,2.786,2.786,0,0,1,2.02-.82,2.69,2.69,0,0,1,1.84.58,1.879,1.879,0,0,1,.67,1.48,6.945,6.945,0,0,1-.1.91c-0.26,1.74-.4,2.75-0.4,3.03,0,0.53.18,0.79,0.54,0.79,0.77,0,1.36-.81,1.76-2.43a3.131,3.131,0,0,1,.71.98q-0.915,3.015-3.16,3.01a1.883,1.883,0,0,1-1.58-.65A2.18,2.18,0,0,1,1114.24,3065.07Zm-20.74,47.47a1.116,1.116,0,0,1,.85-0.32,1.251,1.251,0,0,1,.87.29,1.417,1.417,0,0,1,.31,1.05,2.962,2.962,0,0,1-.49,1.56l-1.44,2.31h1.92v0.51h-2.4v-0.38a1.9,1.9,0,0,1,.14-0.73,7.831,7.831,0,0,1,.59-1.04l0.66-1.04a2,2,0,0,0,.39-1.2,1.051,1.051,0,0,0-.15-0.65,0.524,0.524,0,0,0-.43-0.18,0.477,0.477,0,0,0-.43.23,1.961,1.961,0,0,0-.2.82l-0.56-.08A1.961,1.961,0,0,1,1093.5,3112.54Zm7.08,1.47v2.26a2.24,2.24,0,0,1-.33,1.41,1.292,1.292,0,0,1-1.85,0,2.24,2.24,0,0,1-.33-1.41v-2.26a2.225,2.225,0,0,1,.33-1.4,1.292,1.292,0,0,1,1.85,0A2.225,2.225,0,0,1,1100.58,3114.01Zm-0.63,2.38v-2.5c0-.77-0.21-1.15-0.62-1.15a0.511,0.511,0,0,0-.46.25,1.774,1.774,0,0,0-.16.9v2.5a1.793,1.793,0,0,0,.16.91,0.523,0.523,0,0,0,.46.24C1099.74,3117.54,1099.95,3117.16,1099.95,3116.39Zm5.68-2.38v2.26a2.317,2.317,0,0,1-.32,1.41,1.151,1.151,0,0,1-.93.39,1.125,1.125,0,0,1-.93-0.39,2.24,2.24,0,0,1-.33-1.41v-2.26a2.225,2.225,0,0,1,.33-1.4,1.125,1.125,0,0,1,.93-0.39,1.151,1.151,0,0,1,.93.39A2.3,2.3,0,0,1,1105.63,3114.01Zm-0.63,2.38v-2.5c0-.77-0.21-1.15-0.62-1.15a0.511,0.511,0,0,0-.46.25,1.774,1.774,0,0,0-.16.9v2.5a1.793,1.793,0,0,0,.16.91,0.523,0.523,0,0,0,.46.24C1104.79,3117.54,1105,3117.16,1105,3116.39Zm4.57-1.73a1.03,1.03,0,0,1,.8.37,2.109,2.109,0,0,1,.31,1.33,2.046,2.046,0,0,1-.33,1.34,1.2,1.2,0,0,1-.93.37,1.182,1.182,0,0,1-.92-0.37,2.086,2.086,0,0,1-.32-1.35v-2.3a2.3,2.3,0,0,1,.32-1.43,1.069,1.069,0,0,1,.88-0.4,1.181,1.181,0,0,1,.84.28,1.622,1.622,0,0,1,.36,1.02l-0.59.14a1.5,1.5,0,0,0-.17-0.72,0.479,0.479,0,0,0-.42-0.2,0.5,0.5,0,0,0-.43.25,1.856,1.856,0,0,0-.16.93v1.04A0.965,0.965,0,0,1,1109.57,3114.66Zm0.5,1.8v-0.2c0-.73-0.21-1.1-0.63-1.1s-0.63.35-.63,1.04v0.26q0,1.11.63,1.11T1110.07,3116.46Zm-30.38-55.6-1.83,1.83-1.83-1.83-0.45.46,1.82,1.83-1.82,1.83,0.45,0.45,1.83-1.83,1.83,1.83,0.46-.45-1.83-1.83,1.83-1.83Zm48.2,0-1.83,1.83-1.83-1.83-0.46.46,1.83,1.83-1.83,1.83,0.46,0.45,1.83-1.83,1.83,1.83,0.46-.45-1.83-1.83,1.83-1.83Zm-86.12,54.52c0,0.85-1.38,1.54-3.08,1.54s-3.07-.69-3.07-1.54,1.38-1.53,3.07-1.53S1041.77,3114.53,1041.77,3115.38Zm2.98-.9c-0.6.6-2.06,0.12-3.26-1.08s-1.69-2.66-1.09-3.26,2.06-.12,3.26,1.08S1045.35,3113.88,1044.75,3114.48Zm-4.35,6.15c0.6,0.6,2.06.11,3.26-1.09s1.69-2.66,1.09-3.26-2.06-.11-3.26,1.09S1039.8,3120.03,1040.4,3120.63Zm7.47-5.74v0.99h34.25v-0.99h-34.25Zm114.36,0.49c0-.85,1.38-1.53,3.08-1.53s3.07,0.68,3.07,1.53-1.37,1.54-3.07,1.54S1162.23,3116.23,1162.23,3115.38Zm-2.98.9c0.6-.6,2.06-0.11,3.26,1.09s1.69,2.66,1.09,3.26-2.06.11-3.26-1.09S1158.65,3116.88,1159.25,3116.28Zm4.35-6.15c-0.6-.59-2.06-0.11-3.26,1.09s-1.69,2.66-1.09,3.26,2.06,0.12,3.26-1.08S1164.2,3110.74,1163.6,3110.13Zm-7.46,4.76h-34.43v0.99h34.43v-0.99Zm-105.01-17.77a3.391,3.391,0,0,0-1.64-2.6l-2.02-1.05a4.955,4.955,0,0,1-2.68-3.97,4.792,4.792,0,0,1,.38-3.42,3.217,3.217,0,0,1,2.3-1.31,3.269,3.269,0,0,1,2.54.5,5.108,5.108,0,0,1,1.53,2.99l-1.66.65q-0.54-2.88-2.13-2.64c-1.06.17-1.47,1.07-1.22,2.71a5.4,5.4,0,0,0,.51,1.73,2.789,2.789,0,0,0,1.1,1.08l1.99,1.06a7.528,7.528,0,0,1,1.15.7,4.341,4.341,0,0,1,.94,1.19,5.876,5.876,0,0,1,.67,2.06,4.123,4.123,0,0,1-.47,3.2,3.618,3.618,0,0,1-2.41,1.27,3.208,3.208,0,0,1-2.67-.66,6.538,6.538,0,0,1-1.67-3.53l1.65-.56a6.5,6.5,0,0,0,.97,2.65,1.453,1.453,0,0,0,1.42.62C1050.91,3099.61,1051.38,3098.72,1051.13,3097.12Zm4.17-11.63-0.17-1.45,6.21-.72,0.16,1.46-2.2.25,1.66,14.45-1.8.21-1.66-14.45Zm13.08,5.97,0.49,5.77,3.96-.33,0.13,1.45-5.79.49-1.35-15.95,5.72-.48,0.13,1.45-3.9.33,0.49,5.81,3.55-.29,0.13,1.45Zm9.25,6.58-0.88-15.99,2.83-.16a3.253,3.253,0,0,1,2.7.97c0.66,0.7,1.04,2.02,1.15,3.95v0.12c0.11,1.93-.12,3.28-0.7,4.04a3.29,3.29,0,0,1-2.58,1.25l-1,.05,0.31,5.67Zm4.02-10.72-0.04-.7c-0.13-2.24-.78-3.33-1.95-3.26l-1,.05,0.41,7.42,1-.05C1081.25,3090.71,1081.77,3089.56,1081.65,3087.32Zm11.84,10.05-0.19-7.25-3.45.1,0.19,7.25-1.83.05-0.43-16.01,1.83-.05,0.2,7.29,3.45-.09-0.2-7.29,1.81-.05,0.43,16Zm8.79-7.35,0.02,5.79,3.98-.02,0.01,1.47-5.81.02-0.06-16.01,5.74-.03v1.47l-3.91.01,0.03,5.84,3.56-.02,0.01,1.47Zm10.48,7.35-1.79-.05,0.43-16.01,1.9,0.06,3.41,11.8,0.32-11.7,1.78,0.04-0.43,16.01-1.9-.05-3.41-11.79Zm15.9-2.93a3.4,3.4,0,0,0-1.07-2.88l-1.75-1.45a4.961,4.961,0,0,1-1.81-4.44,4.8,4.8,0,0,1,1.09-3.27,3.737,3.737,0,0,1,4.9.21,5.08,5.08,0,0,1,.87,3.25l-1.76.29c0.05-1.95-.46-2.96-1.53-3.02s-1.66.74-1.75,2.39a5.171,5.171,0,0,0,.14,1.8,2.652,2.652,0,0,0,.85,1.28l1.73,1.46a6.849,6.849,0,0,1,.98.92,4.184,4.184,0,0,1,.66,1.36,5.984,5.984,0,0,1,.24,2.15,4.141,4.141,0,0,1-1.13,3.03,3.551,3.551,0,0,1-2.62.74,3.155,3.155,0,0,1-2.47-1.19,6.616,6.616,0,0,1-.91-3.81l1.73-.2a6.687,6.687,0,0,0,.4,2.8,1.458,1.458,0,0,0,1.27.89C1127.92,3096.82,1128.57,3096.05,1128.66,3094.44Zm14.06-6.56-0.58,6.43c-0.17,1.93-.59,3.23-1.27,3.91a3.733,3.733,0,0,1-5.29-.47q-0.825-1.185-.57-4.08l0.57-6.42c0.17-1.93.6-3.24,1.28-3.92a3.733,3.733,0,0,1,5.29.47Q1142.975,3084.985,1142.72,3087.88Zm-2.41,6.61,0.64-7.11c0.19-2.19-.3-3.33-1.47-3.44a1.491,1.491,0,0,0-1.37.59,5.091,5.091,0,0,0-.7,2.54l-0.63,7.11a5.016,5.016,0,0,0,.24,2.61,1.492,1.492,0,0,0,1.25.82Q1140.025,3097.775,1140.31,3094.49Zm8,5.32-1.77-.23,2.04-15.88,1.89,0.24,2.2,12.09,1.49-11.61,1.77,0.22-2.03,15.88-1.89-.24-2.21-12.06Zm-78.73,31.86,0.05-.63,1.54,0.12-0.28,3.64-0.48-.04-0.09-.65a1.072,1.072,0,0,1-1.12.72,1.126,1.126,0,0,1-.92-0.56,3.2,3.2,0,0,1-.21-1.75l0.21-2.72a2.987,2.987,0,0,1,.53-1.74,1.331,1.331,0,0,1,1.1-.4,1.421,1.421,0,0,1,.98.42,1.97,1.97,0,0,1,.34,1.27l-0.74.12a1.9,1.9,0,0,0-.15-0.89,0.543,0.543,0,0,0-.46-0.28,0.6,0.6,0,0,0-.53.27,2.505,2.505,0,0,0-.28,1.12l-0.23,3.04a2.522,2.522,0,0,0,.09,1.13,0.585,0.585,0,0,0,.5.34c0.49,0.04.78-.38,0.87-1.27l0.09-1.2Zm3.47,3.29,0.45-6.88,1.22,0.07a1.449,1.449,0,0,1,1.1.54,2.54,2.54,0,0,1,.29,1.69v0.05a2,2,0,0,1-.85,1.85l0.63,2.87-0.81-.06-0.59-2.68-0.48-.03-0.17,2.63Zm2.28-4.48,0.02-.3a1.988,1.988,0,0,0-.14-1.06,0.644,0.644,0,0,0-.53-0.34l-0.44-.02-0.19,3,0.43,0.03C1074.99,3131.82,1075.27,3131.38,1075.33,3130.48Zm4.81,4.9-0.21-1.8-1.39-.08-0.39,1.78-0.79-.04,1.63-6.83,1.04,0.06,0.9,6.95Zm-0.68-5.95-0.78,3.45,1.18,0.06Zm3.23,6.08,0.3-6.9,1.22,0.05a1.385,1.385,0,0,1,1.11.53,2.681,2.681,0,0,1,.33,1.74v0.05a2.77,2.77,0,0,1-.47,1.71,1.434,1.434,0,0,1-1.16.43l-0.43-.02-0.11,2.44Zm2.17-4.43,0.02-.31c0.04-.96-0.19-1.46-0.7-1.48l-0.43-.02-0.14,3.21,0.43,0.01C1084.55,3132.52,1084.82,3132.04,1084.86,3131.08Zm4.67,4.68,0.1-3.12-1.49-.05-0.1,3.12-0.78-.02,0.21-6.9,0.79,0.03-0.1,3.14,1.49,0.04,0.1-3.14,0.78,0.03-0.22,6.89Zm3.01,0.08,0.15-6.9,0.79,0.02-0.16,6.89Zm3.85-.72a0.584,0.584,0,0,0,.53.3,0.568,0.568,0,0,0,.52-0.25,2.3,2.3,0,0,0,.25-0.99l0.68,0.1a2.411,2.411,0,0,1-.46,1.4,1.324,1.324,0,0,1-1.04.38,1.3,1.3,0,0,1-1.06-.49,2.927,2.927,0,0,1-.37-1.78l0.04-2.68a2.869,2.869,0,0,1,.42-1.77,1.266,1.266,0,0,1,1.06-.47,1.31,1.31,0,0,1,1.01.36,1.91,1.91,0,0,1,.42,1.23l-0.73.17a1.878,1.878,0,0,0-.21-0.87,0.506,0.506,0,0,0-.47-0.25,0.591,0.591,0,0,0-.52.3,2.594,2.594,0,0,0-.2,1.14l-0.04,3.05A2.34,2.34,0,0,0,1096.39,3135.12Zm6.24,0.84-0.02-6.9h1.34a1.411,1.411,0,0,1,1.15.47,2.754,2.754,0,0,1,.41,1.73l0.01,2.48a2.712,2.712,0,0,1-.4,1.74,1.4,1.4,0,0,1-1.15.48h-1.34Zm2.11-2.04v-2.82c-0.01-.94-0.27-1.41-0.79-1.41h-0.55l0.02,5.65h0.55C1104.49,3135.33,1104.75,3134.86,1104.74,3133.92Zm3.63-1.11,0.03,2.49,1.72-.02,0.01,0.63-2.51.03-0.08-6.9,2.47-.03,0.01,0.63-1.68.02,0.03,2.51,1.53-.01,0.01,0.63Zm5.86,1.47a1.473,1.473,0,0,0-.56-1.2l-0.8-.56a2.164,2.164,0,0,1-.93-1.85,2.115,2.115,0,0,1,.36-1.44,1.4,1.4,0,0,1,1.06-.43,1.374,1.374,0,0,1,1.05.36,2.169,2.169,0,0,1,.49,1.36l-0.75.18c-0.04-.84-0.3-1.25-0.76-1.24s-0.69.37-.67,1.09a2.646,2.646,0,0,0,.12.77,1.229,1.229,0,0,0,.41.52l0.79,0.56a2.614,2.614,0,0,1,.45.37,1.64,1.64,0,0,1,.34.56,2.7,2.7,0,0,1,.17.92,1.753,1.753,0,0,1-.38,1.33,1.536,1.536,0,0,1-1.1.41,1.372,1.372,0,0,1-1.11-.43,2.774,2.774,0,0,1-.51-1.6l0.73-.15a2.846,2.846,0,0,0,.27,1.19,0.6,0.6,0,0,0,.57.34C1113.99,3135.33,1114.25,3134.98,1114.23,3134.28Zm2.82,1.47-0.21-6.89,0.79-.03,0.21,6.9Zm4.2-3.17-0.03-.63,1.55-.06,0.14,3.64-0.48.02-0.16-.63a1.079,1.079,0,0,1-1.04.84,1.131,1.131,0,0,1-.98-0.44,3.141,3.141,0,0,1-.4-1.72l-0.11-2.73a2.894,2.894,0,0,1,.32-1.79,1.312,1.312,0,0,1,1.04-.52,1.346,1.346,0,0,1,1.03.31,1.984,1.984,0,0,1,.48,1.21l-0.72.21a2.057,2.057,0,0,0-.25-0.87,0.56,0.56,0,0,0-.49-0.22,0.58,0.58,0,0,0-.5.33,2.392,2.392,0,0,0-.14,1.15l0.12,3.04a2.358,2.358,0,0,0,.23,1.11,0.572,0.572,0,0,0,.52.28c0.5-.02.74-0.47,0.72-1.36l-0.05-1.2Zm4.59,2.83-0.77.04-0.35-6.9,0.81-.04,1.87,4.96-0.26-5.04,0.77-.04,0.35,6.89-0.81.04-1.87-4.95Zm5.22-3.43,0.16,2.49,1.71-.11,0.05,0.63-2.5.16-0.44-6.89,2.47-.16,0.04,0.63-1.69.11,0.16,2.51,1.54-.1,0.04,0.63Zm3.94,2.87-0.52-6.88,1.22-.1a1.432,1.432,0,0,1,1.16.38,2.591,2.591,0,0,1,.53,1.63v0.05a2,2,0,0,1-.58,1.95l1.03,2.75-0.81.06-0.96-2.57-0.49.03,0.2,2.64Zm1.62-4.76-0.02-.3a1.959,1.959,0,0,0-.28-1.03,0.655,0.655,0,0,0-.58-0.26l-0.43.04,0.23,2.99,0.43-.03C1136.47,3131.46,1136.69,3130.99,1136.62,3130.09Z" transform="translate(-1035.62 -3053.94)"/>
</svg>
