<svg xmlns="http://www.w3.org/2000/svg" width="125.82" height="103.82" viewBox="0 0 125.82 103.82">
  <defs>
    <style>
      .cls-1 {
        fill: #101012;
        fill-rule: evenodd;
      }
    </style>
  </defs>
  <path id="_4" data-name="#4" class="cls-1" d="M1379.05,3077.6l-0.02.2c-0.39,2.99-.64,4.84-0.77,5.53a16.609,16.609,0,0,0-.3,2.62,0.739,0.739,0,0,0,.76.9,1.436,1.436,0,0,0,1.16-.93,8.026,8.026,0,0,0,.76-2.31,27.766,27.766,0,0,0,.54-4.99,7.717,7.717,0,0,0-.17-1.71,2.874,2.874,0,0,1,1.48-.37,0.84,0.84,0,0,1,.86,1.02,36.716,36.716,0,0,1-.49,4.81,12.189,12.189,0,0,1-1.11,3.94,8.107,8.107,0,0,1-.74,1.03,2.976,2.976,0,0,1-2.4,1,2.286,2.286,0,0,1-2.21-1.32,2.822,2.822,0,0,1-2.56,1.32,2.218,2.218,0,0,1-1.71-.64,2.323,2.323,0,0,1-.61-1.69c0-.1.01-0.23,0.03-0.42l0.57-4.33a3.308,3.308,0,0,1-1.65-2.66,1.874,1.874,0,0,1,.65-1.49,2.315,2.315,0,0,1,1.57-.55,1.77,1.77,0,0,1,2.01,2,0.2,0.2,0,0,1-.01.07c0,0.03-.01.08-0.01,0.15s-0.02.14-.03,0.23-0.04.22-.07,0.39-0.05.37-.08,0.58-0.07.49-.12,0.83-0.11.73-.16,1.13-0.13.9-.21,1.49-0.16,1.08-.22,1.49a6.7,6.7,0,0,0-.09.89,0.829,0.829,0,0,0,.8,1.03c0.74,0,1.19-.68,1.37-2.02l0.98-7.75a2.811,2.811,0,0,1,1.21-.23C1378.72,3076.84,1379.05,3077.09,1379.05,3077.6Zm-6.96.19a0.47,0.47,0,0,0-.43.21,0.931,0.931,0,0,0-.14.49,2.056,2.056,0,0,0,.77,1.43l0.07-.61a6.955,6.955,0,0,0,.07-1.01C1372.44,3077.96,1372.32,3077.79,1372.09,3077.79Zm12.72,3.23a2.525,2.525,0,0,1,.85-0.14,2.367,2.367,0,0,1,.74.1c-0.4,3.08-.6,4.64-0.6,4.67a2.263,2.263,0,0,0-.07.52,1.863,1.863,0,0,0,.03.36,0.477,0.477,0,0,0,.56.4,1.158,1.158,0,0,0,.92-0.66,5.1,5.1,0,0,0,.64-1.48,1.871,1.871,0,0,1,.34.37,1.9,1.9,0,0,1,.27.46,4.178,4.178,0,0,1-1.04,1.98,2.361,2.361,0,0,1-1.77.76,2.078,2.078,0,0,1-1.53-.51,1.8,1.8,0,0,1-.5-1.31c0-.11.01-0.23,0.02-0.35l0.55-4.75A1.052,1.052,0,0,1,1384.81,3081.02Zm0.04-4.08a1.136,1.136,0,0,1,.86-0.37,1.157,1.157,0,0,1,.87.37,1.179,1.179,0,0,1,.36.86,1.147,1.147,0,0,1-.36.86,1.185,1.185,0,0,1-.87.36,1.163,1.163,0,0,1-.86-0.36,1.177,1.177,0,0,1-.35-0.86A1.21,1.21,0,0,1,1384.85,3076.94Zm4.45,11.42a2.03,2.03,0,0,1-1.48-.53,1.962,1.962,0,0,1-.54-1.46q0-.24.83-7.29a2.73,2.73,0,0,1,1.15-2.29,2.205,2.205,0,0,1,1.03-.23,1.727,1.727,0,0,1,2.03,1.87c0,0.11-.01.21-0.02,0.33q-0.15,2.055-2.58,4.19c-0.05.5-.11,0.99-0.17,1.46-0.12,1.05-.18,1.64-0.18,1.75a0.664,0.664,0,0,0,.69.8,1.79,1.79,0,0,0,1.4-.87,6.163,6.163,0,0,0,1.01-2.22,1.486,1.486,0,0,1,.38.25,1.37,1.37,0,0,1,.34.37,6,6,0,0,1-1.1,2.44,3.542,3.542,0,0,1-1.09.98A3.273,3.273,0,0,1,1389.3,3088.36Zm0.59-6.95a4.408,4.408,0,0,0,1.41-2.78c0-.49-0.18-0.73-0.55-0.73a0.527,0.527,0,0,0-.47.46,9.989,9.989,0,0,0-.21,1.39c-0.07.65-.11,1.05-0.13,1.2Zm4.11,6.95a2.03,2.03,0,0,1-1.48-.53,1.962,1.962,0,0,1-.54-1.46q0-.24.83-7.29a2.73,2.73,0,0,1,1.15-2.29,2.205,2.205,0,0,1,1.03-.23,1.727,1.727,0,0,1,2.03,1.87c0,0.11-.01.21-0.02,0.33q-0.15,2.055-2.58,4.19c-0.05.5-.11,0.99-0.17,1.46-0.12,1.05-.18,1.64-0.18,1.75a0.664,0.664,0,0,0,.69.8,1.79,1.79,0,0,0,1.4-.87,6.163,6.163,0,0,0,1.01-2.22,1.685,1.685,0,0,1,.39.25,1.482,1.482,0,0,1,.33.37,6,6,0,0,1-1.1,2.44,3.542,3.542,0,0,1-1.09.98A3.273,3.273,0,0,1,1394,3088.36Zm0.59-6.95a4.408,4.408,0,0,0,1.41-2.78c0-.49-0.18-0.73-0.55-0.73a0.537,0.537,0,0,0-.47.46,9.989,9.989,0,0,0-.21,1.39c-0.07.65-.11,1.05-0.13,1.2Zm3.16-.39a2.623,2.623,0,0,1,.86-0.14,2.367,2.367,0,0,1,.74.1c-0.4,3.08-.6,4.64-0.6,4.67a2.263,2.263,0,0,0-.07.52,1.863,1.863,0,0,0,.03.36,0.477,0.477,0,0,0,.56.4,1.158,1.158,0,0,0,.92-0.66,5.1,5.1,0,0,0,.64-1.48,1.642,1.642,0,0,1,.33.37,1.715,1.715,0,0,1,.28.46,4.178,4.178,0,0,1-1.04,1.98,2.361,2.361,0,0,1-1.77.76,2.047,2.047,0,0,1-1.53-.51,1.8,1.8,0,0,1-.5-1.31c0-.11.01-0.23,0.02-0.35l0.55-4.75A1.025,1.025,0,0,1,1397.75,3081.02Zm0.05-4.08a1.136,1.136,0,0,1,.86-0.37,1.157,1.157,0,0,1,.87.37,1.179,1.179,0,0,1,.36.86,1.147,1.147,0,0,1-.36.86,1.185,1.185,0,0,1-.87.36,1.163,1.163,0,0,1-.86-0.36,1.177,1.177,0,0,1-.35-0.86A1.21,1.21,0,0,1,1397.8,3076.94Zm9.22,11.38a1.862,1.862,0,0,1-1.88-.98,2.488,2.488,0,0,1-2.05,1,2.881,2.881,0,0,1-2.1-.84,3.008,3.008,0,0,1-.85-2.23,4.366,4.366,0,0,1,1.18-3.21,4.032,4.032,0,0,1,2.99-1.2h0.1a3.8,3.8,0,0,1,1.41.26,1.9,1.9,0,0,1,1.01-.26,1.817,1.817,0,0,1,.85.15c-0.09.76-.19,1.51-0.29,2.24s-0.18,1.25-.22,1.56a13.634,13.634,0,0,0-.14,1.5,0.5,0.5,0,0,0,.49.62,1.149,1.149,0,0,0,.82-0.52,4.542,4.542,0,0,0,.75-1.62,2.254,2.254,0,0,1,.62.89,4.021,4.021,0,0,1-1.2,2.05A2.382,2.382,0,0,1,1407.02,3088.32Zm-2.48-6.26a1.9,1.9,0,0,0-1.56.74,4.138,4.138,0,0,0-.68,2.22,2.348,2.348,0,0,0-.01.26,1.828,1.828,0,0,0,.36,1.2,1.137,1.137,0,0,0,.93.45,1.663,1.663,0,0,0,1.46-1.37l0.36-3.32A2.25,2.25,0,0,0,1404.54,3082.06Zm8.39,6.19,0.58-5.1a1.178,1.178,0,0,0-.2-0.72,0.871,0.871,0,0,0-.73-0.28,1,1,0,0,0-.86.5,2.52,2.52,0,0,0-.43,1.05c-0.36,2.55-.56,4.07-0.6,4.55h-2.06l0.85-7.22a4.254,4.254,0,0,1,.98-0.17,0.881,0.881,0,0,1,1.06.65,2.475,2.475,0,0,1,1.64-.65,2.222,2.222,0,0,1,2.27,1.06,2.475,2.475,0,0,1,2.15-1.08,2.385,2.385,0,0,1,1.63.53,1.715,1.715,0,0,1,.6,1.33,6.273,6.273,0,0,1-.09.82c-0.24,1.53-.35,2.43-0.35,2.7,0,0.48.16,0.72,0.47,0.72a1.215,1.215,0,0,0,.86-0.53,4.141,4.141,0,0,0,.73-1.63,3.19,3.19,0,0,1,.63.87c-0.54,1.78-1.48,2.67-2.83,2.67a1.664,1.664,0,0,1-1.41-.58,1.956,1.956,0,0,1-.47-1.23l0.37-3.39a1.091,1.091,0,0,0-.21-0.69,0.81,0.81,0,0,0-.69-0.28,1.153,1.153,0,0,0-.82.35,1.958,1.958,0,0,0-.49.91c-0.31,2.6-.51,4.21-0.6,4.84h-1.98Zm-49.97,51.04a1.361,1.361,0,0,0-.5-1.13l-0.74-.54a2.028,2.028,0,0,1-.83-1.75,1.952,1.952,0,0,1,.37-1.34,1.311,1.311,0,0,1,.99-0.38,1.338,1.338,0,0,1,.99.36,2.062,2.062,0,0,1,.42,1.28l-0.7.16c-0.03-.79-0.25-1.18-0.69-1.18s-0.65.33-.65,1a2.042,2.042,0,0,0,.1.72,1.093,1.093,0,0,0,.37.5l0.73,0.54a4.3,4.3,0,0,1,.42.35,1.906,1.906,0,0,1,.3.53,2.5,2.5,0,0,1,.14.86,1.7,1.7,0,0,1-.38,1.25,1.478,1.478,0,0,1-1.04.36,1.246,1.246,0,0,1-1.02-.43,2.633,2.633,0,0,1-.46-1.51l0.69-.12a2.7,2.7,0,0,0,.23,1.12,0.587,0.587,0,0,0,.53.33C1362.72,3140.27,1362.96,3139.94,1362.96,3139.29Zm3.71,1.45v-6.45h0.74v6.45h-0.74Zm4.65,0h-0.72v-6.45h0.76l1.51,4.72v-4.72h0.72v6.45h-0.77l-1.5-4.71v4.71Zm6.23-.74a0.559,0.559,0,0,0,.5.28,0.533,0.533,0,0,0,.48-0.25,2.131,2.131,0,0,0,.22-0.92l0.64,0.08a2.165,2.165,0,0,1-.42,1.31,1.213,1.213,0,0,1-.96.38,1.231,1.231,0,0,1-1-.45,2.787,2.787,0,0,1-.36-1.66v-2.51a2.787,2.787,0,0,1,.36-1.66,1.225,1.225,0,0,1,.99-0.45,1.3,1.3,0,0,1,.95.32,1.787,1.787,0,0,1,.4,1.15l-0.67.17a1.744,1.744,0,0,0-.21-0.82,0.5,0.5,0,0,0-.45-0.22,0.525,0.525,0,0,0-.47.29,2.182,2.182,0,0,0-.18,1.06v2.86A2.09,2.09,0,0,0,1377.55,3140Zm5.44-2.18v2.33h1.6v0.59h-2.34v-6.45h2.31v0.59h-1.57v2.35h1.43v0.59h-1.43Zm11.57-11.49h-0.72v-6.45h1.12l0.79,4.47,0.79-4.47h1.13v6.45h-0.72v-5.83l-0.79,4.45h-0.82l-0.78-4.45v5.83Zm0.29,22.64,0.92,5.38,0.93-5.38h0.73l-1.19,6.45h-0.93l-1.19-6.45h0.73Zm12.7-14.45a1.253,1.253,0,0,1,.98-0.37,1.4,1.4,0,0,1,1,.34,1.593,1.593,0,0,1,.36,1.2,3.447,3.447,0,0,1-.57,1.8l-1.66,2.66h2.21v0.59h-2.75v-0.44a2.208,2.208,0,0,1,.15-0.84,8.727,8.727,0,0,1,.68-1.2l0.76-1.2a2.323,2.323,0,0,0,.45-1.38,1.183,1.183,0,0,0-.17-0.75,0.607,0.607,0,0,0-.49-0.21,0.574,0.574,0,0,0-.5.26,2.371,2.371,0,0,0-.23.96l-0.64-.1A2.2,2.2,0,0,1,1407.55,3134.52Zm8.15,1.69v2.6a2.674,2.674,0,0,1-.37,1.62,1.319,1.319,0,0,1-1.07.45,1.306,1.306,0,0,1-1.07-.45,2.6,2.6,0,0,1-.38-1.62v-2.6a2.542,2.542,0,0,1,.38-1.61,1.306,1.306,0,0,1,1.07-.45,1.319,1.319,0,0,1,1.07.45A2.618,2.618,0,0,1,1415.7,3136.21Zm-0.73,2.74v-2.87c0-.89-0.24-1.33-0.71-1.33a0.6,0.6,0,0,0-.53.28,2.028,2.028,0,0,0-.19,1.05v2.87a1.962,1.962,0,0,0,.19,1.04,0.607,0.607,0,0,0,.53.29C1414.73,3140.28,1414.97,3139.84,1414.97,3138.95Zm6.54-2.74v2.6a2.6,2.6,0,0,1-.37,1.62,1.306,1.306,0,0,1-1.07.45,1.319,1.319,0,0,1-1.07-.45,2.6,2.6,0,0,1-.37-1.62v-2.6a2.551,2.551,0,0,1,.37-1.61,1.319,1.319,0,0,1,1.07-.45,1.306,1.306,0,0,1,1.07.45A2.551,2.551,0,0,1,1421.51,3136.21Zm-0.72,2.74v-2.87c0-.89-0.24-1.33-0.71-1.33a0.587,0.587,0,0,0-.53.28,2.028,2.028,0,0,0-.19,1.05v2.87a1.962,1.962,0,0,0,.19,1.04,0.6,0.6,0,0,0,.53.29C1420.55,3140.28,1420.79,3139.84,1420.79,3138.95Zm5.26-1.99a1.141,1.141,0,0,1,.92.43,2.412,2.412,0,0,1,.36,1.53,2.335,2.335,0,0,1-.38,1.53,1.337,1.337,0,0,1-1.07.43,1.316,1.316,0,0,1-1.06-.43,2.375,2.375,0,0,1-.37-1.54v-2.65a2.669,2.669,0,0,1,.37-1.65,1.244,1.244,0,0,1,1.01-.46,1.325,1.325,0,0,1,.97.33,1.85,1.85,0,0,1,.41,1.16l-0.67.17a1.74,1.74,0,0,0-.2-0.83,0.562,0.562,0,0,0-.48-0.23,0.571,0.571,0,0,0-.5.29,2.047,2.047,0,0,0-.19,1.06v1.2A1.124,1.124,0,0,1,1426.05,3136.96Zm0.58,2.07v-0.23c0-.84-0.24-1.27-0.72-1.27s-0.73.4-.74,1.2v0.3c0,0.85.25,1.28,0.73,1.28S1426.63,3139.88,1426.63,3139.03Zm-13.46,13.35-1.81.41-0.58-.58,1.52-.34-0.1-.45-1.81.4-0.57-.57,1.52-.34-0.11-.45-1.8.4-0.58-.57,1.52-.34-0.1-.45-1.81.41-12.32-12.24,14.45-14.55,0.64,1.67,1.99-4.6h0v-0.01l-4.59,2.03,1.62,0.59-14.44,14.54-14.58-14.48,1.67-.64-4.6-1.99,0.01,0.01h-0.01l2.02,4.58,0.6-1.62,14.56,14.47-12.27,12.36-1.88-.41-0.1.45,1.59,0.35-0.57.57-1.88-.41-0.1.46,1.59,0.34-0.57.58-1.88-.41-0.1.45,1.59,0.35-0.57.57-1.88-.4-0.1.45,1.84,0.4,0.04,0.04,0.39,1.74,0.46-.1-0.41-1.81,0.57-.57,0.34,1.51,0.45-.1-0.4-1.8,0.57-.58,0.34,1.52,0.45-.11-0.4-1.8,0.57-.58,0.34,1.52,0.45-.1-0.4-1.81,12.26-12.34,12.33,12.25-0.4,1.87,0.45,0.1,0.35-1.59,0.57,0.57-0.41,1.88,0.46,0.1,0.34-1.59,0.58,0.57-0.41,1.88,0.45,0.1,0.35-1.59,0.57,0.57-0.41,1.88,0.46,0.1,0.4-1.84,0.04-.04,1.74-.39Zm-36.19-49.62c-0.1-.87-0.4-1.28-0.88-1.22l-0.51.06,0.64,5.24,0.51-.06c0.49-.06.67-0.52,0.57-1.4Zm-17.41,15.3-4.73-15.54q-4.485,1.185-8.73,2.56l6.22,7.29,0.35,10.26a131.623,131.623,0,0,1,16.78-4.43l-0.85-2.27C1365.48,3116.55,1362.45,3117.25,1359.57,3118.06Zm55.83-16.36-0.4-.05-0.37,2.79,0.4,0.05q0.705,0.09.87-1.17l0.04-.27a1.854,1.854,0,0,0-.06-1A0.6,0.6,0,0,0,1415.4,3101.7Zm20.87-3.08a174.97,174.97,0,0,0-79.94-.5l4.97,18.03a141.676,141.676,0,0,1,33.83-3.93,139.1,139.1,0,0,1,35.91,4.4Zm-58.44,8.16a1.328,1.328,0,0,1-1.02.58l-1.24.15-0.78-6.41,1.24-.15a1.359,1.359,0,0,1,1.12.31,2.6,2.6,0,0,1,.58,1.56l0.28,2.31A2.635,2.635,0,0,1,1377.83,3106.78Zm3.48,0.09-0.54-6.43,2.3-.19,0.05,0.59-1.57.13,0.2,2.34,1.43-.12,0.05,0.59-1.43.12,0.19,2.32,1.6-.13,0.05,0.59Zm7.62-.71a1.441,1.441,0,0,1-1.02.4,1.29,1.29,0,0,1-1.04-.37,2.746,2.746,0,0,1-.52-1.49l0.69-.15a2.637,2.637,0,0,0,.27,1.1,0.607,0.607,0,0,0,.55.31c0.48-.03.71-0.36,0.68-1.01a1.372,1.372,0,0,0-.55-1.11l-0.76-.51a2.023,2.023,0,0,1-.91-1.7,1.952,1.952,0,0,1,.3-1.36,1.5,1.5,0,0,1,1.97-.12,2.068,2.068,0,0,1,.49,1.27l-0.7.18c-0.06-.78-0.3-1.16-0.74-1.14s-0.63.36-.6,1.03a2.582,2.582,0,0,0,.13.72,1.2,1.2,0,0,0,.4.48l0.75,0.5a2.8,2.8,0,0,1,.43.34,1.6,1.6,0,0,1,.33.51,2.6,2.6,0,0,1,.18.85A1.657,1.657,0,0,1,1388.93,3106.16Zm3.38,0.12-0.1-6.45,0.74-.01,0.1,6.45Zm6.6,0.01-0.45-.01-0.12-.6a1.075,1.075,0,0,1-1.9.27,2.925,2.925,0,0,1-.3-1.62l0.05-2.55a2.733,2.733,0,0,1,.39-1.66,1.216,1.216,0,0,1,1-.43,1.292,1.292,0,0,1,.94.33,1.823,1.823,0,0,1,.38,1.16l-0.67.16a1.817,1.817,0,0,0-.2-0.82,0.492,0.492,0,0,0-.44-0.23,0.522,0.522,0,0,0-.48.28,2.254,2.254,0,0,0-.2,1.06l-0.04,2.85a2.194,2.194,0,0,0,.15,1.04,0.562,0.562,0,0,0,.48.3c0.47,0,.72-0.41.74-1.24l0.02-1.12-0.76-.01,0.01-.59,1.45,0.02Zm6.1,0.28-0.76-.04-1.25-4.79-0.25,4.7-0.72-.04,0.35-6.44,0.76,0.04,1.25,4.8,0.25-4.71,0.72,0.04Zm6.03-5.38-1.57-.15-0.22,2.34,1.43,0.14-0.05.58-1.43-.13-0.22,2.32,1.6,0.15-0.06.59-2.33-.22,0.6-6.42,2.3,0.21Zm5.6,2.09v0.05a1.9,1.9,0,0,1-.91,1.67l0.41,2.71-0.75-.1-0.39-2.54-0.44-.06-0.33,2.45-0.73-.1,0.85-6.39,1.13,0.15a1.322,1.322,0,0,1,.99.57A2.345,2.345,0,0,1,1416.64,3103.28Zm21.04-.34-4.7,15.54c-2.88-.79-5.91-1.49-9.04-2.1l-0.84,2.27a129.447,129.447,0,0,1,16.79,4.4l0.32-10.27,6.2-7.29C1443.59,3104.57,1440.67,3103.72,1437.68,3102.94Zm-95.25-21.1a3.049,3.049,0,0,0-2.5-1.15l-2.02.19a4.464,4.464,0,0,1-3.95-1.67,4.345,4.345,0,0,1-1.38-2.77,3.36,3.36,0,0,1,3.25-2.96,4.619,4.619,0,0,1,2.6,1.51l-0.93,1.29c-1.2-1.27-2.17-1.58-2.88-.94s-0.59,1.51.4,2.62a5.073,5.073,0,0,0,1.22,1.06,2.448,2.448,0,0,0,1.35.27l2.02-.17a6.232,6.232,0,0,1,1.2-.03,3.8,3.8,0,0,1,1.28.44,5.166,5.166,0,0,1,1.51,1.22,3.7,3.7,0,0,1,1.2,2.63,3.23,3.23,0,0,1-1.19,2.13,2.861,2.861,0,0,1-2.33.8,5.884,5.884,0,0,1-2.98-1.84l0.97-1.22a5.937,5.937,0,0,0,2.02,1.52,1.289,1.289,0,0,0,1.37-.23C1343.47,3083.82,1343.39,3082.92,1342.43,3081.84Zm0.84-13-0.7-1.1,4.71-3.01,0.7,1.1-1.67,1.07,7.01,10.98-1.36.87-7.01-10.98Zm15.91-1.48,2.12,4.73,3.25-1.46,0.54,1.2-4.74,2.13-5.88-13.08,4.69-2.11,0.54,1.2-3.2,1.43,2.14,4.77,2.92-1.31,0.53,1.2Zm12.19,2.23-3.85-13.81,2.45-.68a2.914,2.914,0,0,1,2.54.32,5.8,5.8,0,0,1,1.77,3.24l0.02,0.1a5.764,5.764,0,0,1,.17,3.68,2.942,2.942,0,0,1-2.02,1.58l-0.87.24,1.37,4.89Zm1.45-10.14-0.17-.61c-0.54-1.93-1.32-2.76-2.33-2.48l-0.87.24,1.79,6.42,0.87-.24C1373.12,3062.49,1373.36,3061.39,1372.82,3059.45Zm14.88,6.87-0.75-6.45-3.08.36,0.76,6.45-1.63.19-1.66-14.24,1.63-.19,0.75,6.49,3.08-.36-0.76-6.49,1.61-.19,1.66,14.24Zm10.55-6.84-0.18,5.18,3.56,0.12-0.05,1.31-5.2-.18,0.5-14.33,5.14,0.18-0.05,1.31-3.5-.12-0.18,5.22,3.2,0.11-0.05,1.31Zm11.53,7.61-1.57-.3,2.7-14.08,1.67,0.32,1.3,10.93,1.98-10.3,1.57,0.3-2.7,14.08-1.67-.32-1.31-10.9Zm17.01,1.4a3.029,3.029,0,0,0-.17-2.75l-1.12-1.7a4.45,4.45,0,0,1-.39-4.27,4.348,4.348,0,0,1,1.8-2.52,2.922,2.922,0,0,1,2.36-.03,2.952,2.952,0,0,1,1.78,1.5,4.58,4.58,0,0,1-.11,3l-1.58-.21c0.56-1.66.38-2.65-.52-2.99s-1.61.2-2.13,1.6a4.893,4.893,0,0,0-.35,1.57,2.453,2.453,0,0,0,.39,1.33l1.1,1.69a5.926,5.926,0,0,1,.6,1.05,3.971,3.971,0,0,1,.22,1.33,5.194,5.194,0,0,1-.37,1.91,3.684,3.684,0,0,1-1.75,2.3,3.23,3.23,0,0,1-2.44-.05,2.851,2.851,0,0,1-1.81-1.67,5.98,5.98,0,0,1,.22-3.5l1.54,0.28a5.987,5.987,0,0,0-.39,2.5,1.294,1.294,0,0,0,.85,1.1C1425.53,3070.34,1426.29,3069.84,1426.79,3068.49Zm16.72,0.69-2.86,5.02a5.736,5.736,0,0,1-2.5,2.71,3.33,3.33,0,0,1-4.13-2.35,5.759,5.759,0,0,1,1.06-3.53l2.86-5.02a5.736,5.736,0,0,1,2.5-2.71,3.33,3.33,0,0,1,4.13,2.35A5.775,5.775,0,0,1,1443.51,3069.18Zm-4.42,4.49,3.17-5.56c0.97-1.7,1-2.82.09-3.34a1.337,1.337,0,0,0-1.34-.03,4.506,4.506,0,0,0-1.51,1.8l-3.17,5.55a4.634,4.634,0,0,0-.78,2.22,1.35,1.35,0,0,0,.71,1.14C1437.18,3075.97,1438.12,3075.37,1439.09,3073.67Zm6.27,9.14-1.23-1.03,9.2-11,1.3,1.1-4.16,10.18,6.72-8.04,1.23,1.02-9.2,11-1.3-1.09,4.15-10.17Z" transform="translate(-1332.59 -3051.59)"/>
</svg>
