<svg xmlns="http://www.w3.org/2000/svg" width="43.44" height="44.76" viewBox="0 0 43.44 44.76">
  <defs>
    <style>
      .cls-1 {
        fill: #101012;
        fill-rule: evenodd;
      }
    </style>
  </defs>
  <path id="Icon" class="cls-1" d="M1361.27,2139.82v-2.78h-2.26v2.84a6.559,6.559,0,0,0-5.09,4.99h-14.94v2.26h14.83a6.562,6.562,0,0,0,13.02,0h15.19v-2.26h-15.3A6.57,6.57,0,0,0,1361.27,2139.82Zm-0.95,10.79a4.3,4.3,0,1,1,4.3-4.3A4.306,4.306,0,0,1,1360.32,2150.61Zm18.32-42.48h-36.28a3.593,3.593,0,0,0-3.59,3.59v20.19a3.593,3.593,0,0,0,3.59,3.59h36.28a3.593,3.593,0,0,0,3.59-3.59v-20.19A3.593,3.593,0,0,0,1378.64,2108.13Zm1.33,23.78a1.342,1.342,0,0,1-1.33,1.33h-36.28a1.342,1.342,0,0,1-1.33-1.33v-20.19a1.342,1.342,0,0,1,1.33-1.33h36.28a1.342,1.342,0,0,1,1.33,1.33v20.19h0Z" transform="translate(-1338.78 -2108.12)"/>
</svg>
