<svg xmlns="http://www.w3.org/2000/svg" width="45.25" height="45.24" viewBox="0 0 45.25 45.24">
  <defs>
    <style>
      .cls-1 {
        fill: #101012;
        fill-rule: evenodd;
      }
    </style>
  </defs>
  <path id="Icon" class="cls-1" d="M574.724,2111.38l3.809,3.81a1.173,1.173,0,0,1,0,1.66h0l-24.256,24.26,1.6,1.6,24.257-24.26a3.439,3.439,0,0,0,0-4.86l-9.223-9.22a3.435,3.435,0,0,0-4.866,0l-24.251,24.25,1.6,1.6,24.254-24.25a1.164,1.164,0,0,1,1.664,0l3.814,3.81-23,23,1.6,1.6Zm-34.347,23.46a2.522,2.522,0,0,0-1.755-.84,1.8,1.8,0,0,0-1.47.75,2.8,2.8,0,0,0-.492,1.45l-0.784,9.13h0c-0.009.1-.013,0.2-0.013,0.3a2.964,2.964,0,0,0,3,3.01h0.008c0.089,0,.177-0.01.268-0.01l9.172-.79a2.874,2.874,0,0,0,1.441-.49,1.847,1.847,0,0,0,.754-1.47,2.523,2.523,0,0,0-.839-1.76Zm-1.412,11.53c-0.023,0-.059.01-0.1,0.01a0.693,0.693,0,0,1-.746-0.75c0-.01,0-0.04-0.007-0.09h0.013l0.769-8.99,9.048,9.05Z" transform="translate(-535.875 -2103.38)"/>
</svg>
