<svg xmlns="http://www.w3.org/2000/svg" width="51.124" height="46.24" viewBox="0 0 51.124 46.24">
  <defs>
    <style>
      .cls-1 {
        fill: #101012;
        fill-rule: evenodd;
      }
    </style>
  </defs>
  <path id="Icon" class="cls-1" d="M980.667,2119.04H969.039a16.291,16.291,0,0,0-2.408-7.88,8,8,0,0,0-5.965-3.96v-0.03H948.8a3.388,3.388,0,0,0-3.328-2.78h-3.11a3.4,3.4,0,0,0-3.392,3.39v5.7h-4.9a1.135,1.135,0,0,0,0,2.27h4.9v9.42h-4.9a1.135,1.135,0,0,0-1.131,1.13h0a1.135,1.135,0,0,0,1.131,1.13h4.9v4.52a3.389,3.389,0,0,0,3.392,3.39h3.11a3.383,3.383,0,0,0,3.151-2.16h12.042v-0.04a7.977,7.977,0,0,0,5.965-3.96,16.258,16.258,0,0,0,2.408-7.88h11.628a1.145,1.145,0,0,1,1.129,1.13v19.42a1.152,1.152,0,0,1-1.129,1.13H955.978a3.4,3.4,0,0,0-3.393,3.39v4.24h2.263l0-4.24a1.143,1.143,0,0,1,1.133-1.13h24.689a3.4,3.4,0,0,0,3.391-3.39l0-19.42A3.405,3.405,0,0,0,980.667,2119.04ZM946.6,2131.95a1.139,1.139,0,0,1-1.129,1.13h-3.11a1.144,1.144,0,0,1-1.132-1.13v-24.17a1.15,1.15,0,0,1,1.132-1.13h3.11a1.146,1.146,0,0,1,1.129,1.13v24.17Zm2.309-1.04v-21.48h9.494v21.48h-9.494Zm15.824-2.96a5.835,5.835,0,0,1-4.069,2.93v-21.42a5.894,5.894,0,0,1,4.069,2.93A15.6,15.6,0,0,1,964.735,2127.95Z" transform="translate(-932.938 -2104.38)"/>
</svg>
